<svg height="512pt" preserveAspectRatio="xMidYMid meet" viewBox="0 0 512 512" width="512pt" xmlns="http://www.w3.org/2000/svg"><g transform="matrix(.1 0 0 -.1 0 512)"><path d="m1926 4825c-21-7-51-25-66-40-54-52-57-75-57-404v-301h36c51-1 1419-1 1458-1l32 1v303c0 283-2 305-21 345-25 51-66 88-116 102-24 6-252 10-632 10-479-1-603-4-634-15z"/><path d="m1969 3861c-29-35-114-131-234-265-355-398-431-522-491-806-13-60-16-2191-3-2230 38-121 125-221 229-263l55-22h1045 1045l66 32c97 48 180 144 206 239 11 42 14 2148 2 2214-5 30-11 72-15 94-12 83-69 218-132 316-50 76-239 313-271 340-4 3-33 36-66 74s-77 88-99 110c-21 23-68 76-104 119l-65 77h-573l-572-1zm1542-1310c4 0 7-343 7-761v-760h-954-954v758c0 417 2 761 4 763 4 3 1878 4 1897 0z"/><path d="m2377 2355c-2-5-3-90-3-187 1-98-1-179-4-180-3 0-88-2-190-3l-185-1v-190-189l180-2c99-1 185-2 190-2 6-1 10-71 10-188v-188l190-1 190-2v191 191h191 192v175c0 97-2 183-4 191-3 13-33 15-191 15h-188v188c0 103-2 188-5 188-3 1-87 2-187 3-116 1-184-2-186-9z"/></g></svg>